<?xml version="1.0" standalone="no"?>
<!DOCTYPE svg PUBLIC "-//W3C//DTD SVG 20010904//EN"
 "http://www.w3.org/TR/2001/REC-SVG-20010904/DTD/svg10.dtd">
<svg version="1.0" xmlns="http://www.w3.org/2000/svg"
 width="700.000000pt" height="700.000000pt" viewBox="0 0 700.000000 700.000000"
 preserveAspectRatio="xMidYMid meet">
<metadata>
Created by potrace 1.14, written by Peter Selinger 2001-2017
</metadata>
<g transform="translate(0.000000,700.000000) scale(0.100000,-0.100000)"
fill="#000000" stroke="none">
<path d="M3308 6695 c-2 -2 -28 -5 -58 -9 -57 -6 -98 -12 -140 -22 -14 -3 -36
-8 -50 -10 -14 -2 -36 -7 -50 -11 -14 -3 -32 -7 -40 -9 -57 -11 -203 -61 -270
-92 -158 -74 -290 -215 -407 -432 -72 -135 -145 -347 -169 -490 -2 -14 -7 -36
-10 -50 -10 -45 -12 -224 -3 -288 41 -288 332 -588 819 -844 58 -31 193 -95
300 -143 216 -98 462 -222 528 -266 24 -16 45 -29 48 -29 2 0 61 -37 132 -83
195 -128 228 -174 272 -382 12 -55 25 -117 30 -139 5 -21 7 -79 6 -130 -3 -77
-8 -101 -34 -156 -17 -36 -42 -81 -56 -100 -52 -69 -223 -233 -294 -281 -101
-67 -160 -83 -302 -82 -175 1 -598 12 -660 17 -30 3 -89 8 -130 12 -134 12
-329 7 -465 -11 -16 -2 -57 -7 -89 -11 -33 -3 -64 -7 -70 -9 -6 -1 -29 -5 -51
-10 -296 -57 -479 -170 -656 -405 -27 -36 -53 -70 -58 -76 -30 -36 -75 -135
-112 -244 -37 -109 -43 -137 -43 -215 -1 -133 18 -180 113 -275 62 -63 96 -86
181 -129 58 -29 106 -54 108 -56 5 -5 -113 -221 -134 -246 -8 -8 -14 -21 -14
-27 0 -7 -4 -12 -10 -12 -5 0 -10 -4 -10 -9 0 -5 -26 -49 -58 -97 -111 -167
-137 -229 -141 -331 -4 -111 57 -206 167 -255 69 -32 203 -31 297 1 167 57
330 183 453 348 25 35 47 61 49 60 1 -2 -7 -32 -18 -68 -11 -35 -22 -75 -25
-88 -3 -14 -7 -27 -9 -31 -8 -12 -19 -105 -18 -148 1 -23 7 -65 13 -93 16 -67
86 -140 151 -158 56 -15 131 -19 179 -9 19 4 49 9 65 12 235 43 473 198 598
391 70 109 120 243 133 355 1 14 6 51 9 83 l7 57 76 1 c43 0 91 2 107 4 66 6
271 16 458 21 l197 6 1 -23 c5 -83 35 -192 79 -286 146 -313 483 -559 737
-540 161 12 268 106 280 249 l6 58 37 -34 c151 -136 404 -241 563 -231 158 9
251 127 241 305 -4 60 -33 189 -53 235 -5 11 -23 61 -41 110 -45 126 -133 332
-192 449 -41 82 -47 101 -35 108 30 16 104 81 160 141 189 200 265 393 269
687 2 80 -10 259 -17 270 -2 3 -6 24 -9 46 -31 203 -130 446 -247 605 -119
161 -304 326 -554 495 -167 113 -352 222 -470 276 -55 26 -152 71 -215 101
-260 123 -318 151 -385 182 -38 18 -115 54 -170 80 -166 78 -753 354 -865 407
-187 87 -260 127 -376 203 -197 131 -299 253 -334 402 -27 118 -10 181 74 262
l45 44 78 -51 c168 -110 416 -217 576 -247 300 -57 649 -30 945 71 143 49 313
145 388 219 65 65 90 144 81 260 -6 87 -31 142 -136 309 -109 173 -175 248
-278 317 -163 110 -352 172 -638 208 -65 8 -379 13 -387 6z"/>
</g>
</svg>
